<?xml version="1.0" encoding="UTF-8" standalone="no"?>
<!-- Created with Inkscape (http://www.inkscape.org/) -->

<svg
   width="210mm"
   height="297mm"
   viewBox="0 0 210 297"
   version="1.1"
   id="svg1"
   xml:space="preserve"
   inkscape:export-filename="bitmap.png"
   inkscape:export-xdpi="96"
   inkscape:export-ydpi="96"
   inkscape:version="1.4 (86a8ad7, 2024-10-11)"
   sodipodi:docname="dibujo.svg"
   xmlns:inkscape="http://www.inkscape.org/namespaces/inkscape"
   xmlns:sodipodi="http://sodipodi.sourceforge.net/DTD/sodipodi-0.dtd"
   xmlns="http://www.w3.org/2000/svg"
   xmlns:svg="http://www.w3.org/2000/svg"><sodipodi:namedview
     id="namedview1"
     pagecolor="#ffffff"
     bordercolor="#999999"
     borderopacity="1"
     inkscape:showpageshadow="2"
     inkscape:pageopacity="0"
     inkscape:pagecheckerboard="0"
     inkscape:deskcolor="#d1d1d1"
     inkscape:document-units="mm"
     inkscape:zoom="0.49264169"
     inkscape:cx="510.51302"
     inkscape:cy="431.34798"
     inkscape:window-width="1366"
     inkscape:window-height="745"
     inkscape:window-x="-8"
     inkscape:window-y="-8"
     inkscape:window-maximized="1"
     inkscape:current-layer="layer1" /><defs
     id="defs1" /><g
     inkscape:label="Capa 1"
     inkscape:groupmode="layer"
     id="layer1"><text
       xml:space="preserve"
       style="font-size:6.35px;text-align:start;writing-mode:lr-tb;direction:ltr;text-anchor:start;fill:#0095ff;stroke:#0095ff;stroke-width:0.383"
       x="67.13382"
       y="165.95479"
       id="text1"><tspan
         sodipodi:role="line"
         id="tspan1"
         style="stroke-width:0.383"
         x="67.13382"
         y="165.95479" /></text><g
       id="g3"
       transform="matrix(1.1856275,0,0,1.2646069,-14.587616,-25.586155)"><path
         style="opacity:1;fill:#288558;fill-opacity:1;stroke:#0f0f0f;stroke-width:0.783;stroke-dasharray:none;stroke-opacity:1"
         d="m 59.148588,120.76565 0.189881,17.94396 c 0.250999,1.74321 1.636675,2.1248 3.133071,2.37353 h 21.077026 c 3.496257,0.10179 3.239185,-1.50248 4.177426,-2.56342 l -0.284824,-18.03889 16.209172,1.03958 c -1.86259,-3.77312 -6.59619,-11.18647 -5.195951,-18.03412 2.118901,-0.78799 1.669601,-2.47153 2.373541,-2.46848 h 9.11439 l -0.0949,-4.367311 c -0.27924,-1.021087 -0.21107,-2.071125 -3.4179,-2.848247 L 88.105799,93.897192 87.915916,76.617829 C 87.465174,75.4317 88.146022,74.151271 84.877788,73.199933 H 61.806949 c -1.542027,0.573992 -2.350535,1.514744 -2.373537,2.848248 l -0.09494,18.133835 H 40.540043 c -1.322852,0.107602 -2.469689,0.567234 -3.038131,2.183656 l 0.189883,21.836558 c 1.232328,2.29581 2.696458,2.50541 4.17743,2.56342 z"
         id="path1"
         sodipodi:nodetypes="ccccccccccccccccccccccc" /><path
         style="opacity:1;fill:#0a5b76;fill-opacity:1;stroke:#0f0f0f;stroke-width:0.783;stroke-dasharray:none;stroke-opacity:1"
         d="m 109.96519,101.17066 53.16998,0.2014 c 2.05298,7.28412 0.36381,22.2207 -16.78345,31.68716 9.94572,0.26651 5.27185,8.88542 2.41681,8.32459 l -34.90958,-0.67133 c -2.66662,-0.54989 -4.72192,-7.95203 3.08815,-7.78753 -7.90616,-6.69989 -17.711652,-9.60109 -18.931729,-29.67314 0.781361,-2.49363 0.241253,-2.18625 2.819619,-2.28255 z"
         id="path2"
         sodipodi:nodetypes="ccccccccc" /><path
         style="opacity:1;fill:#288558;fill-opacity:1;stroke:#0f0f0f;stroke-width:0.783;stroke-dasharray:none;stroke-opacity:1"
         d="m 129.97498,100.92287 16.14007,-20.317492 c -1.53927,-15.6876 23.8199,-4.55958 7.50038,4.36731 l -8.35486,16.329952 z"
         id="path3"
         sodipodi:nodetypes="ccccc" /><text
         xml:space="preserve"
         style="font-style:normal;font-variant:normal;font-weight:bold;font-stretch:normal;font-size:18.323px;font-family:Gadugi;-inkscape-font-specification:'Gadugi Bold';text-align:start;writing-mode:lr-tb;direction:ltr;text-anchor:start;opacity:0.928251;fill:#000000;stroke:#0f0f0f;stroke-width:0;stroke-dasharray:none;stroke-opacity:1"
         x="29.657112"
         y="137.43871"
         id="text3"
         transform="scale(0.85163359,1.1742139)"><tspan
           sodipodi:role="line"
           id="tspan3"
           style="font-style:normal;font-variant:normal;font-weight:bold;font-stretch:normal;font-family:Gadugi;-inkscape-font-specification:'Gadugi Bold';fill:#000000;stroke-width:0;stroke-dasharray:none"
           x="29.657112"
           y="137.43871">NOVAPHARMA.com</tspan></text></g></g></svg>
