<?xml version="1.0" encoding="UTF-8" standalone="no"?>
<!-- Created with Inkscape (http://www.inkscape.org/) -->

<svg
   width="210mm"
   height="297mm"
   viewBox="0 0 210 297"
   version="1.1"
   id="svg1"
   inkscape:version="1.3 (0e150ed6c4, 2023-07-21)"
   sodipodi:docname="icono10.svg"
   xmlns:inkscape="http://www.inkscape.org/namespaces/inkscape"
   xmlns:sodipodi="http://sodipodi.sourceforge.net/DTD/sodipodi-0.dtd"
   xmlns="http://www.w3.org/2000/svg"
   xmlns:svg="http://www.w3.org/2000/svg">
  <sodipodi:namedview
     id="namedview1"
     pagecolor="#ffffff"
     bordercolor="#000000"
     borderopacity="0.25"
     inkscape:showpageshadow="2"
     inkscape:pageopacity="0.0"
     inkscape:pagecheckerboard="0"
     inkscape:deskcolor="#d1d1d1"
     inkscape:document-units="mm"
     inkscape:zoom="0.6743757"
     inkscape:cx="396.66316"
     inkscape:cy="561.25984"
     inkscape:window-width="1920"
     inkscape:window-height="974"
     inkscape:window-x="-11"
     inkscape:window-y="-11"
     inkscape:window-maximized="1"
     inkscape:current-layer="layer1" />
  <defs
     id="defs1" />
  <g
     inkscape:label="Capa 1"
     inkscape:groupmode="layer"
     id="layer1">
    <g
       id="g4"
       transform="matrix(1.3181208,0,0,1.2426054,73.399733,90.509308)">
      <g
         id="g5"
         transform="translate(-15.914208,-7.2466485)">
        <path
           style="opacity:1;fill:#1e3050;fill-opacity:1;stroke:#000000;stroke-width:0.2;stroke-dasharray:none;stroke-opacity:1"
           d="m 41.508375,37.636391 v 13.76508 h 1.38539 c 0.878031,-0.166863 1.505259,-0.569775 1.580764,-1.491956 V 38.968497 C 44.194933,37.70188 42.96097,37.542329 41.508375,37.636391 Z"
           id="path1-2"
           sodipodi:nodetypes="cccccc" />
        <path
           style="opacity:0.983137;fill:#1e3050;fill-opacity:1;stroke:#000000;stroke-width:0.2;stroke-dasharray:none;stroke-opacity:1"
           d="M 30.673926,51.401471 V 37.565347 l 9.875335,0.07104 v 13.782838 l -9.875335,-0.01775"
           id="path2-1" />
        <path
           style="opacity:1;fill:#1e3050;fill-opacity:1;stroke:#000000;stroke-width:0.2;stroke-dasharray:none;stroke-opacity:1"
           d="m 29.721349,51.385972 -0.0314,-13.752324 h -1.538502 c -1.197235,0.231672 -1.191337,0.864388 -1.381511,1.431747 v 10.86371 c 0.03685,1.286091 0.748729,1.261836 1.324996,1.500825 l 1.632696,-0.01257 z"
           id="path3-2"
           sodipodi:nodetypes="cccccccc" />
        <path
           style="opacity:1;fill:#ff0000;fill-opacity:1;stroke:#000000;stroke-width:0.1;stroke-dasharray:none;stroke-opacity:1"
           d="m 35.673759,47.502846 0.712675,-0.0067 c 0.129988,0.01545 0.255587,0.02333 0.217577,-0.250878 l -0.0096,-1.586331 c -0.03945,-0.195859 0.07866,-0.177443 0.18211,-0.178967 h 1.604439 c 0.103536,0.0077 0.191873,-0.008 0.172688,-0.175828 V 43.80022 c 0.005,-0.12807 0.01146,-0.257069 -0.226096,-0.229206 H 36.76393 c -0.07414,-0.0098 -0.185241,0.05441 -0.160128,-0.15385 v -1.598157 c 0.0045,-0.169908 -0.06563,-0.2577 -0.238625,-0.232347 h -1.475708 c -0.171409,0.01362 -0.222541,0.09982 -0.222925,0.216646 V 43.4674 c -0.0034,0.09174 -0.06089,0.09532 -0.119311,0.09734 h -1.604439 c -0.260519,-0.0203 -0.227885,0.08504 -0.229206,0.175829 v 1.604439 c -0.03048,0.214049 0.129948,0.12295 0.219787,0.144431 h 1.560481 c 0.215422,-0.008 0.152448,0.08045 0.160128,0.14443 v 1.620137 c -0.04541,0.43916 0.660112,0.234726 1.019775,0.24884 z"
           id="path4-8"
           sodipodi:nodetypes="ccccccccccccccccccccccccc" />
      </g>
    </g>
  </g>
</svg>
