<?xml version="1.0" encoding="UTF-8" standalone="no"?>
<!-- Created with Inkscape (http://www.inkscape.org/) -->

<svg
   width="210mm"
   height="297mm"
   viewBox="0 0 210 297"
   version="1.1"
   id="svg1"
   inkscape:version="1.3 (0e150ed6c4, 2023-07-21)"
   sodipodi:docname="icono2.svg"
   xmlns:inkscape="http://www.inkscape.org/namespaces/inkscape"
   xmlns:sodipodi="http://sodipodi.sourceforge.net/DTD/sodipodi-0.dtd"
   xmlns="http://www.w3.org/2000/svg"
   xmlns:svg="http://www.w3.org/2000/svg">
  <sodipodi:namedview
     id="namedview1"
     pagecolor="#ffffff"
     bordercolor="#000000"
     borderopacity="0.25"
     inkscape:showpageshadow="2"
     inkscape:pageopacity="0.0"
     inkscape:pagecheckerboard="0"
     inkscape:deskcolor="#d1d1d1"
     inkscape:document-units="mm"
     inkscape:zoom="0.6743757"
     inkscape:cx="396.66316"
     inkscape:cy="561.25984"
     inkscape:window-width="1920"
     inkscape:window-height="974"
     inkscape:window-x="-11"
     inkscape:window-y="-11"
     inkscape:window-maximized="1"
     inkscape:current-layer="layer1" />
  <defs
     id="defs1" />
  <g
     inkscape:label="Capa 1"
     inkscape:groupmode="layer"
     id="layer1">
    <g
       id="g51"
       transform="translate(-94.52762,-50.415383)">
      <path
         style="fill:#000000;fill-opacity:1;stroke:#5225d8;stroke-width:0.489721;stroke-linecap:round;stroke-linejoin:round;stroke-dasharray:none;stroke-opacity:1"
         id="path50-6"
         sodipodi:type="arc"
         sodipodi:cx="208.53058"
         sodipodi:cy="166.65758"
         sodipodi:rx="8.2849636"
         sodipodi:ry="8.0457649"
         sodipodi:start="1.7976363"
         sodipodi:end="1.7967103"
         sodipodi:open="true"
         sodipodi:arc-type="arc"
         d="m 206.66729,174.49723 a 8.2849636,8.0457649 0 0 1 -6.20986,-9.64733 8.2849636,8.0457649 0 0 1 9.9327,-6.03281 8.2849636,8.0457649 0 0 1 6.21446,9.64453 8.2849636,8.0457649 0 0 1 -9.92982,6.03728" />
      <path
         style="opacity:1;fill:#000000;fill-opacity:1;stroke:#5225d8;stroke-width:0.4;stroke-linecap:round;stroke-linejoin:round;stroke-dasharray:none;stroke-opacity:1"
         d="m 209.08711,192.74663 -12.21984,0.0355 c -2.17107,-0.39977 -3.01374,-1.8512 -2.91286,-4.0496 0.0518,-4.69542 1.32762,-8.89296 6.92694,-11.33177 2.79159,-1.06409 4.08985,-0.42151 5.6126,-0.0355 1.19123,0.49729 2.84744,0.41334 4.79557,-0.0355 2.22241,-0.95408 4.32532,-0.59371 6.35858,0.53284 5.00296,3.44449 5.73027,7.74412 5.57708,12.21984 -0.59081,1.77709 -1.81401,2.51935 -3.44571,2.59317 z"
         id="path51"
         sodipodi:nodetypes="cccccccccc" />
    </g>
  </g>
</svg>
