<?xml version="1.0" encoding="UTF-8" standalone="no"?>
<!-- Created with Inkscape (http://www.inkscape.org/) -->

<svg
   width="210mm"
   height="297mm"
   viewBox="0 0 210 297"
   version="1.1"
   id="svg1"
   inkscape:version="1.3 (0e150ed6c4, 2023-07-21)"
   sodipodi:docname="icono9.svg"
   xmlns:inkscape="http://www.inkscape.org/namespaces/inkscape"
   xmlns:sodipodi="http://sodipodi.sourceforge.net/DTD/sodipodi-0.dtd"
   xmlns="http://www.w3.org/2000/svg"
   xmlns:svg="http://www.w3.org/2000/svg">
  <sodipodi:namedview
     id="namedview1"
     pagecolor="#ffffff"
     bordercolor="#000000"
     borderopacity="0.25"
     inkscape:showpageshadow="2"
     inkscape:pageopacity="0.0"
     inkscape:pagecheckerboard="0"
     inkscape:deskcolor="#d1d1d1"
     inkscape:document-units="mm"
     inkscape:zoom="0.6743757"
     inkscape:cx="396.66316"
     inkscape:cy="561.25984"
     inkscape:window-width="1920"
     inkscape:window-height="974"
     inkscape:window-x="-11"
     inkscape:window-y="-11"
     inkscape:window-maximized="1"
     inkscape:current-layer="layer1" />
  <defs
     id="defs1" />
  <g
     inkscape:label="Capa 1"
     inkscape:groupmode="layer"
     id="layer1">
    <g
       id="g8"
       transform="matrix(0.78158156,0,0,0.78158156,124.4545,112.02084)">
      <g
         id="g55"
         transform="matrix(1.2917094,0,0,1.2917094,8.5701668,-3.8571709)">
        <path
           style="opacity:0.983137;fill:#4d4d4d;fill-opacity:1;stroke:#000000;stroke-width:0;stroke-dasharray:none;stroke-opacity:1"
           id="path7-71"
           sodipodi:type="arc"
           sodipodi:cx="21.49144"
           sodipodi:cy="68.423164"
           sodipodi:rx="0.9544993"
           sodipodi:ry="0.9544993"
           sodipodi:start="1.7976363"
           sodipodi:end="1.7967103"
           sodipodi:open="true"
           sodipodi:arc-type="arc"
           d="m 21.276773,69.353211 a 0.9544993,0.9544993 0 0 1 -0.71543,-1.144498 0.9544993,0.9544993 0 0 1 1.144333,-0.715695 0.9544993,0.9544993 0 0 1 0.71596,1.144167 0.9544993,0.9544993 0 0 1 -1.144001,0.716225" />
        <path
           style="opacity:0.983137;fill:#4d4d4d;fill-opacity:1;stroke:#000000;stroke-width:0;stroke-dasharray:none;stroke-opacity:1"
           id="path7-70"
           sodipodi:type="arc"
           sodipodi:cx="24.641321"
           sodipodi:cy="66.885902"
           sodipodi:rx="0.9544993"
           sodipodi:ry="0.9544993"
           sodipodi:start="1.7976363"
           sodipodi:end="1.7967103"
           sodipodi:open="true"
           sodipodi:arc-type="arc"
           d="m 24.426655,67.815949 a 0.9544993,0.9544993 0 0 1 -0.71543,-1.144498 0.9544993,0.9544993 0 0 1 1.144332,-0.715695 0.9544993,0.9544993 0 0 1 0.71596,1.144167 0.9544993,0.9544993 0 0 1 -1.144001,0.716225" />
        <path
           style="opacity:0.983137;fill:#4d4d4d;fill-opacity:1;stroke:#000000;stroke-width:0;stroke-dasharray:none;stroke-opacity:1"
           id="path7-6"
           sodipodi:type="arc"
           sodipodi:cx="21.539997"
           sodipodi:cy="65.298401"
           sodipodi:rx="0.9544993"
           sodipodi:ry="0.9544993"
           sodipodi:start="1.7976363"
           sodipodi:end="1.7967103"
           sodipodi:open="true"
           sodipodi:arc-type="arc"
           d="m 21.325331,66.228448 a 0.9544993,0.9544993 0 0 1 -0.71543,-1.144498 0.9544993,0.9544993 0 0 1 1.144332,-0.715695 0.9544993,0.9544993 0 0 1 0.71596,1.144166 0.9544993,0.9544993 0 0 1 -1.144001,0.716225" />
        <path
           style="opacity:0.983137;fill:#4d4d4d;fill-opacity:1;stroke:#000000;stroke-width:0;stroke-dasharray:none;stroke-opacity:1"
           id="path7-7"
           sodipodi:type="arc"
           sodipodi:cx="24.627922"
           sodipodi:cy="63.710899"
           sodipodi:rx="0.9544993"
           sodipodi:ry="0.9544993"
           sodipodi:start="1.7976363"
           sodipodi:end="1.7967103"
           sodipodi:open="true"
           sodipodi:arc-type="arc"
           d="m 24.413256,64.640946 a 0.9544993,0.9544993 0 0 1 -0.715431,-1.144498 0.9544993,0.9544993 0 0 1 1.144333,-0.715695 0.9544993,0.9544993 0 0 1 0.71596,1.144167 0.9544993,0.9544993 0 0 1 -1.144001,0.716225" />
        <path
           style="opacity:0.983137;fill:#1e3050;fill-opacity:1;stroke:#000000;stroke-width:0.1;stroke-dasharray:none;stroke-opacity:1"
           d="m 39.913141,60.836772 1.532224,-5.726996 c 0.01696,-0.539853 -0.287295,-0.882041 -0.703316,-1.155446 l -4.602948,-1.205685 c -0.610064,-0.09576 -0.975639,0.16411 -1.218242,0.602843 l -0.552604,1.978075 z"
           id="path5-7"
           sodipodi:nodetypes="ccccccc" />
        <path
           style="opacity:0.983137;fill:#1e3050;fill-opacity:1;stroke:#000000;stroke-width:0.1;stroke-dasharray:none;stroke-opacity:1"
           d="m 31.819535,61.116953 1.225537,-4.617961 c 0.136255,-0.172708 0.252609,-0.367806 0.64829,-0.248661 l 6.172086,6.180966 c 0.252793,0.372162 -0.0081,0.847068 -0.05329,1.278821 l -1.376508,5.097518 c -0.145513,0.437762 -0.454805,0.575265 -0.799264,0.648293 H 27.610085 c -0.536576,-0.109186 -0.671062,-0.463123 -0.834784,-0.799264 v -6.75821 c 0.07926,-0.299807 0.163431,-0.599 0.896948,-0.817025 z"
           id="path6-8"
           sodipodi:nodetypes="cccccccccccc" />
        <path
           style="opacity:0.983137;fill:#4d4d4d;fill-opacity:1;stroke:#000000;stroke-width:0;stroke-dasharray:none;stroke-opacity:1"
           id="path7-0"
           sodipodi:type="arc"
           sodipodi:cx="21.476234"
           sodipodi:cy="62.117813"
           sodipodi:rx="0.9544993"
           sodipodi:ry="0.9544993"
           sodipodi:start="1.7976363"
           sodipodi:end="1.7967103"
           sodipodi:open="true"
           sodipodi:arc-type="arc"
           d="m 21.261568,63.04786 a 0.9544993,0.9544993 0 0 1 -0.71543,-1.144498 0.9544993,0.9544993 0 0 1 1.144332,-0.715695 0.9544993,0.9544993 0 0 1 0.71596,1.144167 0.9544993,0.9544993 0 0 1 -1.144001,0.716224" />
      </g>
    </g>
  </g>
</svg>
