<?xml version="1.0" encoding="UTF-8" standalone="no"?>
<!-- Created with Inkscape (http://www.inkscape.org/) -->

<svg
   width="210mm"
   height="297mm"
   viewBox="0 0 210 297"
   version="1.1"
   id="svg1"
   inkscape:version="1.3 (0e150ed6c4, 2023-07-21)"
   sodipodi:docname="icono8.svg"
   xmlns:inkscape="http://www.inkscape.org/namespaces/inkscape"
   xmlns:sodipodi="http://sodipodi.sourceforge.net/DTD/sodipodi-0.dtd"
   xmlns="http://www.w3.org/2000/svg"
   xmlns:svg="http://www.w3.org/2000/svg">
  <sodipodi:namedview
     id="namedview1"
     pagecolor="#ffffff"
     bordercolor="#000000"
     borderopacity="0.25"
     inkscape:showpageshadow="2"
     inkscape:pageopacity="0.0"
     inkscape:pagecheckerboard="0"
     inkscape:deskcolor="#d1d1d1"
     inkscape:document-units="mm"
     inkscape:zoom="0.6743757"
     inkscape:cx="396.66316"
     inkscape:cy="561.25984"
     inkscape:window-width="1920"
     inkscape:window-height="974"
     inkscape:window-x="-11"
     inkscape:window-y="-11"
     inkscape:window-maximized="1"
     inkscape:current-layer="layer1" />
  <defs
     id="defs1" />
  <g
     inkscape:label="Capa 1"
     inkscape:groupmode="layer"
     id="layer1">
    <g
       id="g24"
       transform="matrix(1.1571363,0,0,1.1571363,65.397027,-124.75439)">
      <g
         id="g53"
         transform="matrix(1.3792886,0,0,1.3792886,-15.544824,-41.431692)">
        <path
           style="opacity:0.983137;fill:#1e3050;fill-opacity:1;stroke:#000000;stroke-width:0.0499999;stroke-dasharray:none;stroke-opacity:1"
           d="m 41.32467,200.16002 0.318637,0.34203 v 0 l 0.298173,0.0205 0.989523,-1.06553 -0.038,-0.31571 -4.864307,-5.0397 -0.239707,0.006 -1.008525,1.07576 0.0029,0.33617 0.239708,0.21632 -0.0263,0.21048 -7.189819,7.42748 c -0.90488,1.42321 -0.840076,2.81462 0.157096,4.17546 1.349092,1.246 3.015487,1.15198 4.365625,-0.16537 l 4.696354,-4.81211 z"
           id="path22-7"
           sodipodi:nodetypes="ccccccccccccccccc" />
        <path
           style="opacity:0.983137;fill:#ffffff;fill-opacity:1;stroke:#000000;stroke-width:0;stroke-dasharray:none;stroke-opacity:1"
           d="m 40.280746,199.10516 -2.234491,-2.2531 -7.135699,7.39322 c -0.477571,0.77315 -0.659126,1.55668 0.111839,2.37363 0.706694,0.59348 1.72153,0.49227 2.302701,-0.21498 l 7.027995,-7.25123 z"
           id="path23-1"
           sodipodi:nodetypes="ccccccc" />
        <path
           style="opacity:0.983137;fill:#a5acb9;fill-opacity:1;stroke:#000000;stroke-width:0;stroke-dasharray:none;stroke-opacity:1"
           d="M 38.288864,201.25771 H 33.8192 l -2.920339,2.99634 c -0.470229,0.80229 -0.625326,1.57477 0.05262,2.26845 0.931882,0.7419 1.725695,0.50669 2.455537,-0.18124 z"
           id="path24-4"
           sodipodi:nodetypes="cccccc" />
      </g>
    </g>
  </g>
</svg>
