<?xml version="1.0" encoding="UTF-8" standalone="no"?>
<!-- Created with Inkscape (http://www.inkscape.org/) -->

<svg
   width="210mm"
   height="297mm"
   viewBox="0 0 210 297"
   version="1.1"
   id="svg1"
   inkscape:version="1.3 (0e150ed6c4, 2023-07-21)"
   sodipodi:docname="icono7.svg"
   xmlns:inkscape="http://www.inkscape.org/namespaces/inkscape"
   xmlns:sodipodi="http://sodipodi.sourceforge.net/DTD/sodipodi-0.dtd"
   xmlns="http://www.w3.org/2000/svg"
   xmlns:svg="http://www.w3.org/2000/svg">
  <sodipodi:namedview
     id="namedview1"
     pagecolor="#ffffff"
     bordercolor="#000000"
     borderopacity="0.25"
     inkscape:showpageshadow="2"
     inkscape:pageopacity="0.0"
     inkscape:pagecheckerboard="0"
     inkscape:deskcolor="#d1d1d1"
     inkscape:document-units="mm"
     inkscape:zoom="0.6743757"
     inkscape:cx="396.66316"
     inkscape:cy="561.25984"
     inkscape:window-width="1920"
     inkscape:window-height="974"
     inkscape:window-x="-11"
     inkscape:window-y="-11"
     inkscape:window-maximized="1"
     inkscape:current-layer="layer1" />
  <defs
     id="defs1" />
  <g
     inkscape:label="Capa 1"
     inkscape:groupmode="layer"
     id="layer1">
    <g
       id="g17"
       transform="matrix(2.3594355,0,0,2.3594355,34.953612,-128.70294)">
      <g
         id="g20"
         transform="matrix(0.70704416,0,0,0.70704416,10.735604,31.905074)">
        <path
           style="opacity:0.983137;fill:#1e3050;fill-opacity:1;stroke:#000000;stroke-width:0.05;stroke-dasharray:none;stroke-opacity:1"
           d="m 32.459885,127.28461 1.373931,-1.36224 0.958892,0.92466 c 0.04827,0.0363 0.103386,0.0419 0.173633,-0.0207 l 0.452686,-0.40928 c 0.05208,-0.0667 0.09584,-0.15453 0.02894,-0.24391 l -2.540412,-2.57969 c -0.103398,-0.041 -0.194598,-0.0392 -0.275953,-0.003 l -0.433049,0.46819 c -0.07472,0.0794 -0.06854,0.16491 0,0.25528 l 0.919843,0.91157 -1.389325,1.38098 -2.470906,-2.3711 -1.338101,1.3158 5.398836,5.43831 c 0.129456,0.11133 0.210583,0.0535 0.297656,0.0165 l 1.091406,-1.11207 c 0.0207,-0.0797 0.06991,-0.14035 -0.03514,-0.30386 l -2.248958,-2.27789 z"
           id="path16-2"
           sodipodi:nodetypes="cccccccccccccccccccc" />
        <path
           style="opacity:0.983137;fill:#1e3050;fill-opacity:1;stroke:#000000;stroke-width:0.0499999;stroke-dasharray:none;stroke-opacity:1"
           d="m 31.987778,131.15062 -4.152492,-4.15834 -1.929891,1.97866 1.728185,1.78358 0.0117,0.23386 -0.485262,0.49403 H 26.97 l -1.821191,-1.79196 -1.373932,1.41193 1.751033,1.71888 0.0029,0.30402 -0.499878,0.4648 H 24.86233 l -1.800728,-1.77735 c -1.794365,1.6138 -1.565699,1.52705 -1.324237,4.83215 l -2.169059,2.18076 0.65481,0.64312 2.227524,-2.19245 c 2.520211,0.22597 3.197121,0.64214 4.735681,-1.29793 l 4.856998,-4.77661 z"
           id="path17-9"
           sodipodi:nodetypes="ccccccccccccccccccccc" />
      </g>
    </g>
  </g>
</svg>
