<?xml version="1.0" encoding="UTF-8" standalone="no"?>
<!-- Created with Inkscape (http://www.inkscape.org/) -->

<svg
   width="64mm"
   height="64mm"
   viewBox="0 0 64 64"
   version="1.1"
   id="svg1"
   xml:space="preserve"
   inkscape:export-filename="bitmap.png"
   inkscape:export-xdpi="96"
   inkscape:export-ydpi="96"
   inkscape:version="1.3 (0e150ed6c4, 2023-07-21)"
   sodipodi:docname="icono de la paguina.svg"
   xmlns:inkscape="http://www.inkscape.org/namespaces/inkscape"
   xmlns:sodipodi="http://sodipodi.sourceforge.net/DTD/sodipodi-0.dtd"
   xmlns="http://www.w3.org/2000/svg"
   xmlns:svg="http://www.w3.org/2000/svg"><sodipodi:namedview
     id="namedview1"
     pagecolor="#ffffff"
     bordercolor="#999999"
     borderopacity="1"
     inkscape:showpageshadow="2"
     inkscape:pageopacity="0"
     inkscape:pagecheckerboard="0"
     inkscape:deskcolor="#d1d1d1"
     inkscape:document-units="mm"
     inkscape:zoom="0.98528338"
     inkscape:cx="322.24232"
     inkscape:cy="230.89804"
     inkscape:window-width="1920"
     inkscape:window-height="974"
     inkscape:window-x="-11"
     inkscape:window-y="-11"
     inkscape:window-maximized="1"
     inkscape:current-layer="g4"
     showgrid="false" /><defs
     id="defs1" /><g
     inkscape:label="Capa 1"
     inkscape:groupmode="layer"
     id="layer1"><text
       xml:space="preserve"
       style="font-size:6.35px;text-align:start;writing-mode:lr-tb;direction:ltr;text-anchor:start;fill:#0095ff;stroke:#0095ff;stroke-width:0.383"
       x="67.13382"
       y="165.95479"
       id="text1"><tspan
         sodipodi:role="line"
         id="tspan1"
         style="stroke-width:0.383"
         x="67.13382"
         y="165.95479" /></text><g
       id="g2"><g
         id="g1"><g
           id="g4"><g
             id="g3"
             transform="matrix(0.40394439,0,0,0.40394439,-10.361337,-15.842554)"><path
               style="fill:#2ecc71;fill-opacity:1;stroke:#0f0f0f;stroke-width:0.958768;stroke-dasharray:none;stroke-opacity:1"
               d="m 55.540577,127.13492 0.225128,22.69205 c 0.297591,2.20448 1.940487,2.68704 3.714655,3.00159 h 24.989501 c 4.145259,0.12872 3.840467,-1.90005 4.952872,-3.24172 l -0.337696,-22.81211 19.218043,1.31466 c -2.20834,-4.77151 -7.82063,-14.14648 -6.16046,-22.80607 2.51222,-0.9965 1.97952,-3.12551 2.81413,-3.12166 h 10.80627 l -0.11251,-5.522927 c -0.33108,-1.291274 -0.25025,-2.619159 -4.05236,-3.601913 L 89.873042,93.156882 89.647912,71.30528 C 89.1135,69.805293 89.920732,68.186054 86.045824,66.982985 H 58.692402 c -1.828269,0.725875 -2.786859,1.915556 -2.81413,3.601914 L 55.765708,93.517072 H 33.477774 c -1.56841,0.136075 -2.928131,0.717328 -3.602092,2.761467 l 0.225131,27.614661 c 1.461082,2.9033 3.196994,3.16836 4.952876,3.24172 z"
               id="path1"
               sodipodi:nodetypes="ccccccccccccccccccccccc" /><path
               style="fill:#bdc3c7;fill-opacity:1;stroke:#0f0f0f;stroke-width:0.958768;stroke-dasharray:none;stroke-opacity:1"
               d="m 115.79014,102.35496 63.03979,0.25469 c 2.43407,9.21155 0.43134,28.10045 -19.89892,40.0718 11.79192,0.33703 6.25045,11.23657 2.86543,10.52734 l -41.38975,-0.84897 c -3.16162,-0.6954 -5.59844,-10.05619 3.66139,-9.84817 -9.37376,-8.47272 -20.99942,-12.1416 -22.44598,-37.52485 0.92641,-3.15347 0.28604,-2.76475 3.34302,-2.88653 z"
               id="path2"
               sodipodi:nodetypes="ccccccccc" /><path
               style="fill:#2ecc71;fill-opacity:1;stroke:#0f0f0f;stroke-width:0.958768;stroke-dasharray:none;stroke-opacity:1"
               d="m 139.51429,102.0416 19.13612,-25.693638 c -1.82501,-19.838647 28.24152,-5.766076 8.89265,5.522931 l -9.90575,20.650967 z"
               id="path3"
               sodipodi:nodetypes="ccccc" /><circle
               id="path4"
               style="fill:#2ecc71;stroke:#000000;stroke-width:0.264583"
               cx="153.42555"
               cy="119.62635"
               r="0.050584488" /></g></g></g></g></g></svg>
