<?xml version="1.0" encoding="UTF-8" standalone="no"?>
<!-- Created with Inkscape (http://www.inkscape.org/) -->

<svg
   width="210mm"
   height="297mm"
   viewBox="0 0 210 297"
   version="1.1"
   id="svg1"
   inkscape:version="1.3 (0e150ed6c4, 2023-07-21)"
   sodipodi:docname="icono11.svg"
   xmlns:inkscape="http://www.inkscape.org/namespaces/inkscape"
   xmlns:sodipodi="http://sodipodi.sourceforge.net/DTD/sodipodi-0.dtd"
   xmlns="http://www.w3.org/2000/svg"
   xmlns:svg="http://www.w3.org/2000/svg">
  <sodipodi:namedview
     id="namedview1"
     pagecolor="#ffffff"
     bordercolor="#000000"
     borderopacity="0.25"
     inkscape:showpageshadow="2"
     inkscape:pageopacity="0.0"
     inkscape:pagecheckerboard="0"
     inkscape:deskcolor="#d1d1d1"
     inkscape:document-units="mm"
     inkscape:zoom="0.6743757"
     inkscape:cx="396.66316"
     inkscape:cy="561.25984"
     inkscape:window-width="1920"
     inkscape:window-height="974"
     inkscape:window-x="-11"
     inkscape:window-y="-11"
     inkscape:window-maximized="1"
     inkscape:current-layer="layer1" />
  <defs
     id="defs1" />
  <g
     inkscape:label="Capa 1"
     inkscape:groupmode="layer"
     id="layer1">
    <g
       id="g12"
       transform="matrix(2.176197,0,0,2.176197,-4.90264,-213.70161)">
      <g
         id="g54"
         transform="translate(13.361458,68.527083)">
        <path
           style="opacity:0.983137;fill:#1e3050;fill-opacity:1;stroke:#000000;stroke-width:0.0499999;stroke-dasharray:none;stroke-opacity:1"
           d="m 33.04015,94.666865 v 9.266735 c 0.09467,0.41964 0.35504,0.57415 0.682583,0.62119 l 6.843352,0.006 c 0.33008,-0.042 0.574077,-0.23298 0.701583,-0.62558 v -9.272579 z"
           id="path10-2"
           sodipodi:nodetypes="ccccccc" />
        <path
           style="opacity:0.983137;fill:#1e3050;fill-opacity:1;stroke:#000000;stroke-width:0.0499999;stroke-dasharray:none;stroke-opacity:1"
           d="m 41.562379,91.338851 -8.845618,0.0021 c -0.423259,0.06851 -0.46161,0.276981 -0.517679,0.479012 v 1.527255 c 0.05818,0.307842 0.27405,0.418559 0.537009,0.470421 h 8.695256 c 0.354484,0.0067 0.5749,-0.146994 0.665893,-0.455385 v -1.314598 c 0.01691,-0.331744 -0.03182,-0.631382 -0.534861,-0.708805 z"
           id="path11-7"
           sodipodi:nodetypes="ccccccccc" />
        <path
           style="opacity:0.983137;fill:#ffffff;fill-opacity:1;stroke:#000000;stroke-width:0;stroke-dasharray:none;stroke-opacity:1"
           d="m 39.534173,100.45638 h -1.533249 v 1.50694 c -7.67e-4,0.0874 -2e-4,0.17556 -0.16224,0.16078 l -1.365163,-0.0117 c -0.0852,0.0154 -0.152373,0.002 -0.144703,-0.13009 l -0.01315,-1.54348 -1.51425,-0.007 c -0.06906,0.005 -0.128826,-0.002 -0.127161,-0.095 v -1.379774 c -0.0017,-0.133066 0.06351,-0.16588 0.160779,-0.150548 h 1.473322 l 0.0058,-1.490864 c 0.0035,-0.09521 -0.02949,-0.208653 0.195858,-0.192934 l 1.315468,0.0044 c 0.144478,-0.0028 0.169619,0.09165 0.166624,0.209013 v 1.458706 l 1.490708,0.0046 c 0.134622,0.0015 0.148279,0.07855 0.152963,0.161232 v 1.384929 c -0.02257,0.0413 0.04837,0.11852 -0.101606,0.11079 z"
           id="path12-4"
           sodipodi:nodetypes="ccccccccccccccccccccc" />
      </g>
    </g>
  </g>
</svg>
