<?xml version="1.0" encoding="UTF-8" standalone="no"?>
<!-- Created with Inkscape (http://www.inkscape.org/) -->

<svg
   width="210mm"
   height="297mm"
   viewBox="0 0 210 297"
   version="1.1"
   id="svg1"
   inkscape:version="1.3 (0e150ed6c4, 2023-07-21)"
   sodipodi:docname="icono4.svg"
   xmlns:inkscape="http://www.inkscape.org/namespaces/inkscape"
   xmlns:sodipodi="http://sodipodi.sourceforge.net/DTD/sodipodi-0.dtd"
   xmlns="http://www.w3.org/2000/svg"
   xmlns:svg="http://www.w3.org/2000/svg">
  <sodipodi:namedview
     id="namedview1"
     pagecolor="#ffffff"
     bordercolor="#000000"
     borderopacity="0.25"
     inkscape:showpageshadow="2"
     inkscape:pageopacity="0.0"
     inkscape:pagecheckerboard="0"
     inkscape:deskcolor="#d1d1d1"
     inkscape:document-units="mm"
     inkscape:zoom="0.6743757"
     inkscape:cx="396.66316"
     inkscape:cy="561.25984"
     inkscape:window-width="1920"
     inkscape:window-height="974"
     inkscape:window-x="-11"
     inkscape:window-y="-11"
     inkscape:window-maximized="1"
     inkscape:current-layer="layer1" />
  <defs
     id="defs1" />
  <g
     inkscape:label="Capa 1"
     inkscape:groupmode="layer"
     id="layer1">
    <g
       id="g56"
       transform="translate(-30.215205,-34.583594)"
       style="fill:#ff0000">
      <path
         style="opacity:1;fill:#ff0000;fill-opacity:1;stroke:#5225d8;stroke-width:0.4;stroke-linecap:round;stroke-linejoin:round;stroke-dasharray:none;stroke-opacity:1"
         d="m 152.60588,191.00602 c -0.8407,0.52989 -1.68141,0.72848 -2.52211,-0.10657 -3.15405,-4.69542 -6.46201,-9.25891 -8.98727,-14.4933 -3.38289,-6.39035 -1.72272,-14.81652 5.79022,-17.44169 5.74078,-1.97442 11.98526,-1.02314 15.87868,6.74933 1.05484,4.23506 0.6092,8.54157 -2.30898,12.96582 -2.30276,4.1088 -5.08775,8.21761 -7.85054,12.32641 z"
         id="path49"
         sodipodi:nodetypes="ccccccc" />
      <path
         style="opacity:1;fill:#ffffff;fill-opacity:1;stroke:none;stroke-width:0.4;stroke-linecap:round;stroke-linejoin:round;stroke-dasharray:none;stroke-opacity:1"
         id="path50"
         sodipodi:type="arc"
         sodipodi:cx="151.41586"
         sodipodi:cy="169.79892"
         sodipodi:rx="6.7670908"
         sodipodi:ry="6.5717149"
         sodipodi:start="1.7976363"
         sodipodi:end="1.7967103"
         sodipodi:open="true"
         sodipodi:arc-type="arc"
         d="m 149.89395,176.20228 a 6.7670908,6.5717149 0 0 1 -5.07217,-7.87985 6.7670908,6.5717149 0 0 1 8.11295,-4.92755 6.7670908,6.5717149 0 0 1 5.07592,7.87757 6.7670908,6.5717149 0 0 1 -8.1106,4.9312" />
    </g>
  </g>
</svg>
