<?xml version="1.0" encoding="UTF-8" standalone="no"?>
<!-- Created with Inkscape (http://www.inkscape.org/) -->

<svg
   width="210mm"
   height="297mm"
   viewBox="0 0 210 297"
   version="1.1"
   id="svg1"
   inkscape:version="1.3 (0e150ed6c4, 2023-07-21)"
   sodipodi:docname="icono5.svg"
   xmlns:inkscape="http://www.inkscape.org/namespaces/inkscape"
   xmlns:sodipodi="http://sodipodi.sourceforge.net/DTD/sodipodi-0.dtd"
   xmlns="http://www.w3.org/2000/svg"
   xmlns:svg="http://www.w3.org/2000/svg">
  <sodipodi:namedview
     id="namedview1"
     pagecolor="#ffffff"
     bordercolor="#000000"
     borderopacity="0.25"
     inkscape:showpageshadow="2"
     inkscape:pageopacity="0.0"
     inkscape:pagecheckerboard="0"
     inkscape:deskcolor="#d1d1d1"
     inkscape:document-units="mm"
     inkscape:zoom="0.6743757"
     inkscape:cx="396.66316"
     inkscape:cy="561.25984"
     inkscape:window-width="1920"
     inkscape:window-height="974"
     inkscape:window-x="-11"
     inkscape:window-y="-11"
     inkscape:window-maximized="1"
     inkscape:current-layer="layer1" />
  <defs
     id="defs1">
    <inkscape:path-effect
       effect="fillet_chamfer"
       id="path-effect80-2"
       is_visible="true"
       lpeversion="1"
       nodesatellites_param="F,0,0,1,0,0,0,1 @ F,0,0,1,0,0.18177698,0,1 @ F,0,0,1,0,0,0,1 @ F,0,0,1,0,0,0,1 @ F,0,0,1,0,0,0,1 @ F,0,0,1,0,0,0,1 @ F,0,0,1,0,0.14842912,0,1 @ F,0,0,1,0,0,0,1 @ F,0,0,1,0,0,0,1 @ F,0,0,1,0,0,0,1 @ F,0,0,1,0,0,0,1 @ F,0,0,1,0,0.184128,0,1 @ F,0,0,1,0,0,0,1 @ F,0,0,1,0,0,0,1 @ F,0,0,1,0,0,0,1 @ F,0,0,1,0,0,0,1 @ F,0,0,1,0,0.13757407,0,1 @ F,0,0,1,0,0,0,1 @ F,0,0,1,0,0,0,1 @ F,0,0,1,0,0,0,1 @ F,0,0,1,0,0,0,1"
       radius="0"
       unit="px"
       method="auto"
       mode="F"
       chamfer_steps="1"
       flexible="false"
       use_knot_distance="true"
       apply_no_radius="true"
       apply_with_radius="true"
       only_selected="false"
       hide_knots="false" />
  </defs>
  <g
     inkscape:label="Capa 1"
     inkscape:groupmode="layer"
     id="layer1">
    <g
       id="g2"
       transform="translate(-127.22405,63.928445)">
      <g
         id="g52"
         transform="translate(128.00338,-95.449929)"
         style="fill:#000000;stroke:#000000">
        <path
           style="opacity:1;fill:#000000;fill-opacity:1;stroke:#000000;stroke-width:0.4;stroke-linecap:round;stroke-linejoin:round;stroke-dasharray:none;stroke-opacity:1"
           d="m 79.311356,159.28835 -5.67676,-0.0377 c -1.80529,0.62724 -1.327868,2.90574 -0.07536,3.32819 l 3.704966,0.10047 6.304719,22.82007 -0.351657,0.62796 c -2.484342,2.43387 -1.055505,5.8579 1.431747,6.63126 2.819399,0.28762 4.936977,-1.10011 4.797616,-3.94359 l 9.74594,-0.0754 c 0.220597,4.20365 3.515403,4.68929 5.953063,3.51658 3.12665,-1.92445 2.18099,-5.58033 -0.92938,-6.93268 l -15.699004,-0.0502 c -1.834661,-0.41724 -1.646141,-1.42014 -1.758289,-2.33601 l 17.256343,0.10048 c 1.54827,-0.17003 3.03286,-1.02772 4.34549,-3.74264 l 2.81326,-11.98148 c -0.19237,-2.12001 -1.51245,-2.25526 -2.8635,-2.33601 l -26.4748,-0.0754 -1.381512,-4.7725 c -0.503041,-0.67112 -0.876612,-0.92794 -1.142882,-0.8414 z"
           id="path47"
           sodipodi:nodetypes="cccccccccccccccccccc" />
        <path
           style="opacity:1;fill:#ffffff;fill-opacity:1;stroke:#000000;stroke-width:0.4;stroke-linecap:round;stroke-linejoin:round;stroke-dasharray:none;stroke-opacity:1"
           d="m 107.18176,168.52277 -2.19417,9.60624 c -0.53732,0.67351 -1.12635,1.27378 -2.06032,1.38538 l -16.909301,-0.0685 c -0.575164,-0.19325 -0.535542,-0.85942 -0.715875,-1.35639 l -2.599756,-9.58267 z"
           id="path48"
           sodipodi:nodetypes="ccccccc" />
      </g>
      <path
         style="fill:#ff0000;fill-opacity:0.984314;stroke:#000000;stroke-width:0;stroke-dasharray:none;stroke-opacity:1"
         d="m 348.32852,168.54383 h -3.15487 a 0.18177698,0.18177698 135 0 0 -0.18178,0.18178 v 3.09762 c -0.002,0.1902 -4.4e-4,0.38205 -0.35307,0.34989 l -2.97086,-0.0255 c -0.18542,0.0335 -0.3316,0.004 -0.31491,-0.28311 l -0.0273,-3.21049 a 0.15039046,0.15039046 44.888219 0 0 -0.14969,-0.1491 l -3.14688,-0.0145 c -0.15029,0.0109 -0.28035,-0.004 -0.27673,-0.20673 v -3.00266 c -0.004,-0.28958 0.13821,-0.36099 0.34989,-0.32763 h 3.02211 a 0.18484447,0.18484447 135.11126 0 0 0.18485,-0.18413 l 0.0119,-3.06028 c 0.008,-0.2072 -0.0642,-0.45407 0.42623,-0.41986 l 2.86271,0.01 c 0.31442,-0.006 0.36913,0.19945 0.36261,0.45486 v 3.03686 a 0.1379988,0.1379988 45.088308 0 0 0.13757,0.13799 l 3.10651,0.01 c 0.29296,0.003 0.32268,0.17094 0.33287,0.35087 v 3.01388 c -0.0491,0.0899 0.10527,0.25792 -0.22111,0.2411 z"
         id="path12-1-2"
         sodipodi:nodetypes="ccccccccccccccccccccc"
         inkscape:path-effect="#path-effect80-2"
         inkscape:original-d="m 348.32852,168.54383 h -3.33665 v 3.2794 c -0.002,0.1902 -4.4e-4,0.38205 -0.35307,0.34989 l -2.97086,-0.0255 c -0.18542,0.0335 -0.3316,0.004 -0.31491,-0.28311 l -0.0286,-3.35891 -3.29531,-0.0152 c -0.15029,0.0109 -0.28035,-0.004 -0.27673,-0.20673 v -3.00266 c -0.004,-0.28958 0.13821,-0.36099 0.34989,-0.32763 h 3.20624 l 0.0126,-3.24441 c 0.008,-0.2072 -0.0642,-0.45407 0.42623,-0.41986 l 2.86271,0.01 c 0.31442,-0.006 0.36913,0.19945 0.36261,0.45486 v 3.17443 l 3.24408,0.01 c 0.29296,0.003 0.32268,0.17094 0.33287,0.35087 v 3.01388 c -0.0491,0.0899 0.10527,0.25792 -0.22111,0.2411 z"
         transform="matrix(0.78963955,0,0,0.79879352,-48.31018,-54.863505)" />
    </g>
  </g>
</svg>
